<svg width="20" height="20" viewBox="0 0 20 20" fill="none" xmlns="http://www.w3.org/2000/svg">
<path fill-rule="evenodd" clip-rule="evenodd" d="M8.76543 0H11.1111V1.80238C11.4224 1.84418 11.7282 1.90329 12.0276 1.97871L12.7627 0.246914L14.9219 1.16344L14.1971 2.87082C14.4718 3.03287 14.7363 3.21034 14.9894 3.40204L16.2927 2.09877L17.9513 3.75741L16.6409 5.06782C16.7858 5.26257 16.9223 5.4639 17.0499 5.6713L18.7768 4.93827L19.6933 7.09748L17.9823 7.82376C18.0766 8.17028 18.1489 8.52586 18.1976 8.88889H20V11.2346H18.1801C18.1387 11.5112 18.0836 11.7834 18.0155 12.0505L19.6933 12.7627L18.7768 14.9219L17.1172 14.2174C16.9645 14.4745 16.7983 14.7227 16.6195 14.9608L17.9513 16.2927L16.2927 17.9513L14.9608 16.6195C14.7531 16.7754 14.5379 16.9217 14.3157 17.0579L15.0453 18.7768L12.8861 19.6933L12.1615 17.9863C11.8197 18.0786 11.469 18.1496 11.1111 18.1976V20H8.76543V18.1801C8.48364 18.1379 8.2065 18.0815 7.93475 18.0117L7.22094 19.6933L5.06173 18.7768L5.76951 17.1094C5.52733 16.965 5.29316 16.8085 5.06782 16.6409L3.75741 17.9513L2.09877 16.2927L3.40204 14.9894C3.23334 14.7666 3.07566 14.5351 2.92981 14.2956L1.16345 15.0453L0.24692 12.8861L2.00756 12.1388C1.91823 11.8041 1.84937 11.4611 1.80238 11.1111H0V8.76543H1.8199C1.86665 8.45307 1.93086 8.14642 2.01151 7.84651L0.246914 7.09748L1.16344 4.93827L2.93776 5.69142C3.07514 5.46671 3.22295 5.24907 3.38052 5.03916L1.97531 3.63395L3.63395 1.97531L5.03916 3.38052C5.2636 3.21205 5.49688 3.05473 5.73819 2.90938L5.04566 1.27788L7.20487 0.361354L7.89937 1.99748C8.18243 1.92338 8.4714 1.86391 8.76543 1.8199V0ZM14.6914 10C14.6914 12.591 12.591 14.6914 10 14.6914C7.40904 14.6914 5.30864 12.591 5.30864 10C5.30864 7.40904 7.40904 5.30864 10 5.30864C12.591 5.30864 14.6914 7.40904 14.6914 10Z" fill="#090246"/>
</svg>
