<svg width="100" height="100" viewBox="0 0 100 100" fill="none" xmlns="http://www.w3.org/2000/svg">
<path d="M50 100C77.6142 100 100 77.6142 100 50C100 22.3858 77.6142 0 50 0C22.3858 0 0 22.3858 0 50C0 77.6142 22.3858 100 50 100Z" fill="#090246"/>
<path d="M49.8733 94.5239C74.2539 94.5239 94.0182 74.7596 94.0182 50.379C94.0182 25.9985 74.2539 6.23413 49.8733 6.23413C25.4927 6.23413 5.72839 25.9985 5.72839 50.379C5.72839 74.7596 25.4927 94.5239 49.8733 94.5239Z" fill="white"/>
<path d="M49.3686 80.5391C65.7929 80.5391 79.1074 67.2245 79.1074 50.8002C79.1074 34.3759 65.7929 21.0614 49.3686 21.0614C32.9443 21.0614 19.6298 34.3759 19.6298 50.8002C19.6298 67.2245 32.9443 80.5391 49.3686 80.5391Z" fill="#090246"/>
<path fill-rule="evenodd" clip-rule="evenodd" d="M63.1844 34.3303C63.1844 39.0099 60.8071 43.1343 57.1943 45.5617C56.6032 45.8495 56.0339 46.1751 55.4896 46.5354C53.7251 47.3792 51.7492 47.8518 49.6629 47.8518C42.1952 47.8518 36.1414 41.798 36.1414 34.3303C36.1414 26.8625 42.1952 20.8088 49.6629 20.8088C57.1306 20.8088 63.1844 26.8625 63.1844 34.3303ZM64.6166 34.3303C64.6166 38.1878 63.1559 41.7043 60.7575 44.3566C61.7187 44.1626 62.7135 44.0607 63.732 44.0607C71.9907 44.0607 78.6856 50.7556 78.6856 59.0144C78.6856 67.2731 71.9907 73.968 63.732 73.968C56.8745 73.968 51.0951 69.3521 49.3314 63.0578C47.4855 69.2225 41.7695 73.7153 35.0041 73.7153C26.7454 73.7153 20.0504 67.0203 20.0504 58.7616C20.0504 50.5029 26.7454 43.808 35.0041 43.808C36.1832 43.808 37.3304 43.9444 38.4309 44.2024C36.1142 41.5687 34.7092 38.1136 34.7092 34.3303C34.7092 26.0716 41.4042 19.3766 49.6629 19.3766C57.9216 19.3766 64.6166 26.0716 64.6166 34.3303ZM57.9053 46.8092C57.3609 47.1695 56.7916 47.4952 56.2005 47.7829C52.5877 50.2103 50.2105 54.3347 50.2105 59.0144C50.2105 66.4821 56.2642 72.5358 63.732 72.5358C71.1997 72.5358 77.2535 66.4821 77.2535 59.0144C77.2535 51.5466 71.1997 45.4929 63.732 45.4929C61.6456 45.4929 59.6697 45.9654 57.9053 46.8092ZM48.5256 58.7616C48.5256 66.2294 42.4718 72.2831 35.0041 72.2831C27.5363 72.2831 21.4826 66.2294 21.4826 58.7616C21.4826 51.2939 27.5363 45.2401 35.0041 45.2401C42.4718 45.2401 48.5256 51.2939 48.5256 58.7616Z" fill="white"/>
<path fill-rule="evenodd" clip-rule="evenodd" d="M23.2621 61.1458C23.4586 60.9492 24.0119 60.674 24.6521 61.1458C25.4525 61.7355 28.9908 62.9571 32.824 62.1567C34.1701 61.8757 34.3137 61.5352 34.4176 61.289C34.42 61.2833 34.4223 61.2777 34.4247 61.2721C34.5296 61.0251 34.3329 60.8078 34.0873 60.5365C33.8942 60.3232 33.6708 60.0765 33.5401 59.7557C33.4378 59.5046 33.0023 58.3282 33.0346 57.4811C33.1489 54.4913 34.0062 49.0778 35.0565 47.6664C36.4045 45.8551 37.5418 54.9958 37.1206 57.4811C36.9319 58.5938 36.6505 59.335 36.4311 59.9127C36.1606 60.625 35.9845 61.0886 36.1938 61.6934C36.573 62.7886 45.3345 62.5358 45.9664 61.6934C46.4109 61.1007 46.9313 61.3332 47.2128 61.5888C45.0047 66.0204 40.4283 69.0649 35.1408 69.0649C29.7969 69.0649 25.1793 65.9551 22.9989 61.4465C23.1604 61.3415 23.2621 61.2384 23.2621 61.1458Z" fill="white"/>
<path d="M64.0688 69.7556C70.3267 69.7556 75.3998 64.7579 75.3998 58.593C75.3998 52.4281 70.3267 47.4304 64.0688 47.4304C57.8108 47.4304 52.7377 52.4281 52.7377 58.593C52.7377 64.7579 57.8108 69.7556 64.0688 69.7556Z" fill="white"/>
<path fill-rule="evenodd" clip-rule="evenodd" d="M65.0248 49.4057L66.7043 49.5697L67.2799 47.885C66.3215 47.6066 65.3103 47.4496 64.2646 47.4323L65.0248 49.4057ZM59.7021 48.2899C60.7162 47.8722 61.805 47.5956 62.9433 47.485L62.6191 49.9923L60.8826 50.1675L59.7021 48.2899ZM55.5018 51.2875C56.1884 50.5069 56.983 49.821 57.8627 49.2526L58.5943 51.322L57.1238 52.2622L55.5018 51.2875ZM53.4726 54.6314C53.7054 54.0274 53.9899 53.4486 54.3207 52.9L55.3625 53.5091L54.9906 54.5485L53.4726 54.6314ZM52.7563 57.9571C52.7966 57.2496 52.9039 56.5597 53.0718 55.8935L54.646 56.4953L54.4487 57.5815L52.7563 57.9571ZM53.2283 61.8507C52.9931 61.09 52.8381 60.2947 52.773 59.4745L54.4711 59.6018L54.6499 60.9655L53.2283 61.8507ZM55.4838 65.8782C54.9179 65.2317 54.426 64.5204 54.021 63.7573L55.8344 63.4874L56.374 64.7526L55.4838 65.8782ZM59.2435 68.6958C58.3998 68.3039 57.6131 67.8125 56.899 67.237L58.428 65.7857L59.6761 66.6748L59.2435 68.6958ZM63.197 69.7231C62.366 69.6609 61.5601 69.5103 60.7889 69.2809L61.6033 67.589L62.8564 67.8993L63.197 69.7231ZM68.2796 68.9598C67.2971 69.3474 66.2467 69.6034 65.1508 69.7056L65.1571 67.3504L66.8141 67.0007L68.2796 68.9598ZM72.7822 65.7301C72.0211 66.6308 71.1189 67.4117 70.1088 68.0397L69.6675 66.0911L71.0291 65.0944L72.7822 65.7301ZM74.831 62.097C74.4785 63.1483 73.9717 64.1304 73.337 65.0173L72.3595 63.5088L73.2938 62.1036L74.831 62.097ZM75.3973 58.3276C75.3993 58.4159 75.4004 58.5044 75.4004 58.5932C75.4004 59.584 75.2693 60.5447 75.0234 61.4593L73.7486 60.6729L73.9903 59.0028L75.3973 58.3276ZM74.7331 54.81C75.0593 55.7023 75.2734 56.6474 75.3587 57.6287L73.6406 57.243L73.5589 55.5575L74.7331 54.81ZM72.4806 51.1136C73.1555 51.8497 73.7323 52.6748 74.1905 53.5688L72.4273 53.976L71.6238 52.4921L72.4806 51.1136ZM68.5101 48.3205C69.4834 48.7293 70.3868 49.2685 71.1976 49.9157L69.9657 51.3687L68.4663 50.5945L68.5101 48.3205Z" fill="#090246"/>
<path d="M64.0692 62.5948C66.2793 62.5948 68.0709 60.8032 68.0709 58.5931C68.0709 56.3831 66.2793 54.5915 64.0692 54.5915C61.8591 54.5915 60.0675 56.3831 60.0675 58.5931C60.0675 60.8032 61.8591 62.5948 64.0692 62.5948Z" fill="#090246"/>
<path d="M39.9949 37.6581H38.6783V30.0516H39.9949V37.6581ZM45.5952 35.699C45.5952 35.3646 45.4768 35.1069 45.24 34.9258C45.0067 34.7447 44.5835 34.5619 43.9705 34.3773C43.3575 34.1927 42.8699 33.9871 42.5077 33.7608C41.8147 33.3255 41.4681 32.7577 41.4681 32.0576C41.4681 31.4447 41.7171 30.9397 42.2152 30.5426C42.7167 30.1456 43.3662 29.9471 44.1638 29.9471C44.6932 29.9471 45.1651 30.0446 45.5795 30.2396C45.994 30.4346 46.3196 30.7133 46.5565 31.0755C46.7933 31.4342 46.9117 31.833 46.9117 32.2719H45.5952C45.5952 31.8748 45.4698 31.5649 45.2191 31.342C44.9718 31.1156 44.6166 31.0024 44.1533 31.0024C43.7215 31.0024 43.3853 31.0947 43.1451 31.2793C42.9083 31.4639 42.7898 31.7216 42.7898 32.0524C42.7898 32.3311 42.9187 32.5645 43.1764 32.7525C43.4341 32.9371 43.8591 33.1182 44.4511 33.2958C45.0432 33.4699 45.5186 33.6702 45.8773 33.8966C46.2361 34.1195 46.499 34.3773 46.6662 34.6698C46.8334 34.9589 46.9169 35.2984 46.9169 35.6886C46.9169 36.3224 46.6732 36.8274 46.1856 37.2036C45.7014 37.5762 45.0432 37.7625 44.2108 37.7625C43.6605 37.7625 43.1537 37.6615 42.6906 37.4596C42.2308 37.254 41.8721 36.972 41.6143 36.6132C41.3601 36.2545 41.233 35.8366 41.233 35.3594H42.5548C42.5548 35.7913 42.6976 36.1256 42.9831 36.3624C43.2687 36.5993 43.6779 36.7177 44.2108 36.7177C44.6705 36.7177 45.0153 36.6254 45.2452 36.4408C45.4785 36.2528 45.5952 36.0055 45.5952 35.699ZM53.5726 31.1173H51.2008V37.6581H49.8895V31.1173H47.5387V30.0516H53.5726V31.1173ZM59.0216 34.2623H55.8975V36.6028H59.5492V37.6581H54.5757V30.0516H59.5126V31.1173H55.8975V33.2175H59.0216V34.2623Z" fill="white"/>
<path fill-rule="evenodd" clip-rule="evenodd" d="M49.1149 13.0385L47.4714 13.0423L47.4819 17.5745L46.5733 17.5766L46.5628 13.0444L44.9338 13.0482L44.9321 12.3097L49.1132 12.3L49.1149 13.0385ZM37.8438 17.2152L38.8287 16.9469L40.3823 18.6285L41.3289 18.3707L41.3165 18.3253L39.5969 16.5163C39.8567 16.313 40.037 16.075 40.1378 15.8025C40.2403 15.5269 40.2453 15.2191 40.1527 14.8791C40.017 14.3809 39.7537 14.0436 39.3631 13.8674C38.9724 13.6912 38.4837 13.683 37.8969 13.8428L36.1086 14.3299L37.4938 19.4153L38.3775 19.1746L37.8438 17.2152ZM38.5588 16.2588L37.6507 16.5062L37.1864 14.8017L38.1189 14.5477C38.4276 14.4686 38.679 14.4827 38.8733 14.5898C39.0699 14.6964 39.2053 14.8859 39.2795 15.1583C39.3505 15.4191 39.3228 15.648 39.1964 15.845C39.0694 16.0397 38.8568 16.1776 38.5588 16.2588ZM34.4016 18.1769C34.5982 18.6545 34.6883 19.108 34.6721 19.5376C34.6549 19.9648 34.5322 20.3389 34.3043 20.6598C34.0776 20.9776 33.7644 21.2188 33.365 21.3833C32.9701 21.5458 32.5779 21.595 32.1888 21.5309C31.8008 21.4635 31.4486 21.2862 31.132 20.999C30.8176 20.7109 30.5633 20.3341 30.369 19.8686L30.256 19.5941C30.0603 19.1188 29.9712 18.6648 29.9888 18.2321C30.0087 17.7986 30.132 17.4229 30.3587 17.1051C30.5867 16.7842 30.8993 16.542 31.2965 16.3784C31.6937 16.2148 32.0847 16.1661 32.4695 16.2321C32.8556 16.295 33.2062 16.4716 33.5215 16.762C33.8359 17.0501 34.092 17.4314 34.2899 17.9058L34.4016 18.1769ZM33.45 18.2713C33.2276 17.7312 32.9546 17.3595 32.6307 17.1562C32.3092 16.9519 31.9609 16.927 31.586 17.0813C31.22 17.232 30.9925 17.494 30.9035 17.8673C30.8158 18.2375 30.8776 18.6857 31.0891 19.212L31.2049 19.4931C31.4254 20.0287 31.6996 20.3999 32.0275 20.6068C32.3576 20.8128 32.7079 20.8395 33.0783 20.687C33.4532 20.5326 33.6823 20.2713 33.7655 19.903C33.851 19.5337 33.7808 19.0746 33.5547 18.5256L33.45 18.2713ZM26.9064 23.0636L28.567 21.7437L28.1121 21.1713L26.4514 22.4911L25.4762 21.264L27.3806 19.7505L26.9212 19.1724L24.2997 21.2557L27.579 25.382L28.296 24.8122L26.9064 23.0636ZM20.8372 28.0248L19.6645 25.508L20.304 24.7217L21.7733 28.1934L23.2786 29.4176L22.6985 30.131L21.1931 28.9068L17.4925 28.179L18.1343 27.3897L20.8372 28.0248ZM16.24 31.4723L17.053 30.0441L16.4113 29.6787L14.3428 33.3122L14.9846 33.6775L15.7904 32.2619L19.7291 34.5041L20.1787 33.7145L16.24 31.4723ZM15.8804 36.6378L15.2575 38.711L16.8107 39.1776L17.5387 36.7543L18.2391 36.9646L17.2475 40.2651L12.1997 38.7486L13.184 35.4725L13.8912 35.6849L13.1705 38.084L14.5642 38.5027L15.187 36.4295L15.8804 36.6378ZM16.477 42.8833L16.5952 41.9787L11.3689 41.296L11.2508 42.2005L16.477 42.8833ZM13.8236 44.6237C14.3872 44.6601 14.8325 44.8545 15.1592 45.207C15.4835 45.5596 15.6546 46.0362 15.6723 46.6368C15.6847 47.0565 15.5968 47.4298 15.4085 47.7565C15.2177 48.0808 14.9416 48.3352 14.58 48.5198C14.2185 48.7043 13.7954 48.8073 13.3107 48.829L12.8187 48.8436C12.3218 48.8582 11.8813 48.7832 11.4974 48.6183C11.1134 48.4534 10.8141 48.21 10.5994 47.888C10.3845 47.5636 10.2707 47.1855 10.2579 46.7537C10.2407 46.1724 10.3849 45.6997 10.6904 45.3357C10.9959 44.9718 11.436 44.7523 12.0108 44.6774L12.0379 45.5892C11.6605 45.6438 11.3911 45.7629 11.23 45.9463C11.0664 46.1274 10.9896 46.3892 10.9997 46.7317C11.0115 47.1298 11.1665 47.4318 11.4648 47.6378C11.7605 47.8416 12.1895 47.9375 12.7517 47.9256L13.2184 47.9118C13.7878 47.895 14.2189 47.7808 14.5121 47.5693C14.8051 47.3554 14.9458 47.0519 14.9342 46.6587C14.9236 46.2993 14.8347 46.0315 14.6677 45.8554C14.5007 45.6792 14.2284 45.5726 13.8507 45.5355L13.8236 44.6237ZM14.2429 51.2631C13.8391 51.116 13.3797 51.063 12.8648 51.104L12.5726 51.1272C12.0604 51.1704 11.6189 51.2974 11.2484 51.5084C10.8754 51.7196 10.5999 51.9994 10.4218 52.3477C10.2411 52.6937 10.1678 53.0808 10.2018 53.509C10.2359 53.9373 10.3707 54.309 10.6065 54.6244C10.8396 54.9375 11.1594 55.1699 11.5661 55.3216C11.9726 55.4708 12.432 55.525 12.9444 55.4843L13.2403 55.4608C13.7429 55.4184 14.1795 55.2917 14.5501 55.0806C14.9204 54.8672 15.1971 54.5862 15.38 54.2376C15.5603 53.8867 15.6335 53.4984 15.5996 53.0725C15.5654 52.642 15.4317 52.2701 15.1986 51.957C14.963 51.6416 14.6444 51.4103 14.2429 51.2631ZM11.3509 52.4772C11.6435 52.2312 12.081 52.085 12.6632 52.0387L12.9375 52.017C13.5293 51.9699 13.9878 52.0436 14.3132 52.238C14.6383 52.43 14.8169 52.7281 14.8491 53.1323C14.8808 53.5316 14.7482 53.8569 14.4509 54.1081C14.1536 54.3569 13.7162 54.5042 13.1389 54.5501L12.8358 54.5742C12.2701 54.6143 11.8244 54.536 11.4989 54.3392C11.1707 54.1401 10.991 53.8433 10.9596 53.4488C10.9275 53.0447 11.0579 52.7207 11.3509 52.4772ZM14.5849 58.14C14.3695 58.2254 14.2337 58.3675 14.1775 58.5662C14.1204 58.7629 14.1107 59.0821 14.1482 59.5241C14.1858 59.9661 14.1779 60.3326 14.1246 60.6238C14.021 61.1813 13.7439 61.5495 13.2929 61.7282C12.898 61.8847 12.5091 61.8533 12.1263 61.6338C11.7424 61.4121 11.4487 61.0443 11.2451 60.5305C11.11 60.1896 11.0523 59.8607 11.0722 59.5438C11.092 59.2271 11.1883 58.9462 11.3612 58.7012C11.5318 58.457 11.7584 58.279 12.0412 58.1669L12.3772 59.0149C12.1214 59.1164 11.9538 59.2763 11.8743 59.4946C11.7915 59.7117 11.8093 59.9695 11.9276 60.2678C12.0378 60.5461 12.1831 60.739 12.3633 60.8467C12.5427 60.9521 12.739 60.9626 12.9521 60.8781C13.1316 60.807 13.249 60.6645 13.3043 60.4504C13.3574 60.2373 13.3657 59.9173 13.3289 59.4906C13.2899 59.0647 13.2976 58.7073 13.3519 58.4185C13.4038 58.1304 13.5027 57.8953 13.6485 57.7129C13.792 57.5314 13.9894 57.3909 14.2407 57.2913C14.649 57.1295 15.0366 57.1576 15.4033 57.3757C15.767 57.5923 16.0551 57.9688 16.2676 58.5051C16.4081 58.8595 16.4724 59.2117 16.4605 59.5617C16.4455 59.9103 16.3554 60.2134 16.1901 60.471C16.0239 60.7264 15.7872 60.9149 15.4797 61.0367L15.1423 60.1854C15.4205 60.0751 15.5995 59.8977 15.6792 59.6533C15.7588 59.4089 15.7305 59.115 15.5946 58.7718C15.4771 58.4757 15.3297 58.2771 15.1521 58.1762C14.9714 58.0738 14.7823 58.0618 14.5849 58.14ZM18.761 65.7078L18.3508 64.8889L13.6382 67.2492L14.045 68.0616L17.4015 66.3806L15.1004 70.1687L15.5105 70.9875L20.2231 68.6273L19.813 67.8084L16.4695 69.483L18.761 65.7078ZM21.0093 71.5792L22.2027 73.2357L23.448 72.8651L24.0045 73.6375L18.5642 75.1028L18.0839 74.4361L21.1947 69.7369L21.7532 70.5124L21.0093 71.5792ZM21.4532 73.4588L20.5604 72.2193L19.2327 74.1171L21.4532 73.4588ZM25.8519 74.994L25.1903 74.3661L21.5623 78.1894L22.2241 78.8173L25.8519 74.994ZM30.2988 78.6847L27.0407 82.8277L25.8172 81.8655C25.451 81.5775 25.1908 81.2409 25.0364 80.8554C24.8803 80.4686 24.8422 80.064 24.9223 79.6421C25.0025 79.22 25.1947 78.8154 25.499 78.4285L25.6624 78.2207C25.9712 77.8281 26.3214 77.5447 26.7131 77.3707C27.1028 77.1952 27.5063 77.141 27.9233 77.208C28.3385 77.2735 28.7329 77.4532 29.1066 77.7471L30.2988 78.6847ZM26.7773 81.6811L29.1269 78.6934L28.6574 78.3241C28.2799 78.0272 27.8981 77.9174 27.5121 77.9945C27.1226 78.072 26.7522 78.3302 26.4008 78.7692L26.2196 78.9997C25.866 79.4493 25.6936 79.8694 25.7026 80.2603C25.7115 80.651 25.9018 80.9926 26.2737 81.285L26.7773 81.6811ZM32.3457 85.8619L33.1437 86.3118L35.7305 81.7196L34.9389 81.2736L33.0964 84.5443L32.8856 80.117L32.0877 79.6676L29.5008 84.2596L30.2988 84.7095L32.1341 81.4512L32.3457 85.8619ZM35.5129 87.2351L36.3624 87.5671L38.2822 82.6584L37.4327 82.3261L35.5129 87.2351ZM52.2091 15.3921L54.3739 15.3871L54.3722 14.6631L52.2074 14.6682L52.204 13.2129L54.709 13.2071L54.7073 12.4686L51.2865 12.4766L51.2987 17.7472L54.7449 17.7392L54.7432 17.0079L52.2129 17.0138L52.2091 15.3921ZM61.0314 17.3656C60.888 17.9119 60.6122 18.3118 60.2038 18.5652C59.7958 18.8163 59.2953 18.8932 58.7023 18.796C58.2879 18.7281 57.9384 18.5705 57.6536 18.3233C57.3717 18.0741 57.1746 17.7544 57.0625 17.3644C56.9503 16.9742 56.93 16.5393 57.0013 16.0594L57.0809 15.5736C57.1613 15.083 57.3191 14.6651 57.5542 14.3196C57.7894 13.9742 58.0855 13.7268 58.4425 13.5775C58.802 13.4286 59.1949 13.389 59.6212 13.4589C60.1951 13.5529 60.6316 13.7847 60.9305 14.154C61.2295 14.5234 61.3609 14.9974 61.3247 15.5759L60.4245 15.4283C60.4429 15.0474 60.3775 14.7603 60.2282 14.5672C60.0817 14.372 59.8393 14.2466 59.5011 14.1912C59.1081 14.1268 58.7821 14.2213 58.5229 14.4747C58.2665 14.7261 58.0904 15.1289 57.9947 15.683L57.9192 16.1438C57.8271 16.7059 57.8568 17.151 58.0085 17.479C58.1625 17.8075 58.4336 18.0036 58.8218 18.0672C59.1766 18.1254 59.4564 18.0893 59.6612 17.9591C59.8659 17.8287 60.0226 17.5817 60.1311 17.218L61.0314 17.3656ZM65.0548 21.2168L65.8888 21.5865L68.0253 16.7683L67.1914 16.3986L66.3022 18.404L64.1479 17.4486L65.0371 15.4433L64.1999 15.072L62.0633 19.8902L62.9006 20.2614L63.85 18.1204L66.0043 19.0757L65.0548 21.2168ZM71.1397 24.8108L70.343 24.3592L70.1429 19.9475L68.2991 23.2008L67.5023 22.7491L70.1012 18.1638L70.898 18.6154L71.0972 23.0432L72.9482 19.7774L73.7386 20.2254L71.1397 24.8108ZM72.1189 26.0408L72.7714 26.6783L76.4548 22.9084L75.8023 22.271L72.1189 26.0408ZM78.0017 29.8889C77.5193 30.1828 77.0433 30.2793 76.5733 30.1785C76.1054 30.0761 75.6916 29.7843 75.3321 29.3028C75.0808 28.9663 74.9385 28.6103 74.9049 28.2347C74.8749 27.8597 74.9547 27.4928 75.1447 27.1341C75.3346 26.7753 75.6218 26.448 76.0061 26.1519L76.4006 25.8573C76.7989 25.5598 77.2025 25.3683 77.6115 25.2828C78.0205 25.1972 78.4054 25.2246 78.7661 25.3648C79.1283 25.507 79.4386 25.7512 79.6971 26.0972C80.0451 26.5632 80.1986 27.033 80.1576 27.5063C80.1166 27.9797 79.8823 28.4122 79.4548 28.8037L78.909 28.0728C79.1866 27.8113 79.3386 27.5592 79.3652 27.3164C79.3951 27.0742 79.3076 26.8159 79.1025 26.5413C78.8642 26.2222 78.5639 26.064 78.2014 26.0667C77.8423 26.0698 77.436 26.2376 76.9826 26.5702L76.6085 26.8496C76.1521 27.1904 75.8648 27.5315 75.7462 27.873C75.6292 28.2164 75.6884 28.5458 75.9238 28.8609C76.1389 29.149 76.3654 29.3172 76.6033 29.3655C76.8412 29.4137 77.1253 29.3446 77.4558 29.158L78.0017 29.8889ZM79.5952 32.6031L80.5763 34.3935L79.7071 35.361L80.1664 36.1991L83.83 31.9171L83.4352 31.1965L77.8562 31.9833L78.3138 32.8182L79.5952 32.6031ZM81.1004 33.8132L80.3664 32.4736L82.6509 32.0928L81.1004 33.8132ZM81.7828 38.1859L82.4751 40.4763L81.7751 40.688L80.8178 37.5208L85.8626 35.9958L86.128 36.8725L81.7828 38.1859ZM85.5619 46.0672L85.6032 48.2316L86.3268 48.2178L86.2856 46.0534L87.7405 46.0256L87.7885 48.5302L88.5265 48.5161L88.4608 45.0958L83.1915 45.1965L83.2573 48.6421L83.9884 48.6281L83.9401 46.0982L85.5619 46.0672ZM83.2758 50.7567L88.545 50.656L88.5754 52.2124C88.5838 52.678 88.4886 53.0926 88.2872 53.4561C88.0867 53.822 87.7978 54.1075 87.4204 54.3127C87.0429 54.5178 86.6082 54.625 86.1162 54.6345L85.8517 54.6395C85.3521 54.649 84.9115 54.5573 84.5282 54.3643C84.146 54.1736 83.8487 53.8957 83.6365 53.5305C83.4244 53.1677 83.3138 52.7485 83.3047 52.2732L83.2758 50.7567ZM87.8247 51.5859L84.0243 51.6585L84.0358 52.2556C84.045 52.7358 84.2016 53.1009 84.5054 53.351C84.8121 53.6034 85.2468 53.7266 85.8087 53.7207L86.1019 53.7151C86.6739 53.7041 87.1086 53.5715 87.4052 53.3173C87.7017 53.063 87.8458 52.6994 87.8365 52.2265L87.8247 51.5859ZM84.283 60.9592L87.7953 61.216L87.8618 60.3062L84.3749 60.0512C83.6333 59.9971 83.2883 59.6186 83.3397 58.9157C83.3651 58.5691 83.4769 58.3136 83.6753 58.149C83.8736 57.9844 84.1485 57.915 84.4995 57.9407L88.016 58.1978L88.0825 57.2881L84.5737 57.0314C84.0033 56.9897 83.5438 57.134 83.1954 57.4642C82.8494 57.7946 82.6545 58.2607 82.6104 58.8624C82.5669 59.4569 82.6947 59.9442 82.9936 60.3241C83.2947 60.7067 83.7244 60.9184 84.283 60.9592ZM81.6745 66.6995C81.1665 66.4528 80.8279 66.1044 80.6587 65.6545C80.4917 65.2056 80.5135 64.6997 80.7242 64.1369C80.8714 63.7436 81.0939 63.4314 81.3917 63.2001C81.691 62.972 82.0429 62.8408 82.4473 62.8067C82.8517 62.7725 83.2824 62.837 83.7392 63.0003L84.2003 63.1728C84.6655 63.3471 85.0455 63.5831 85.3386 63.8809C85.6318 64.1787 85.8163 64.5172 85.8938 64.8965C85.9696 65.278 85.9326 65.6711 85.7809 66.0757C85.5771 66.6204 85.2645 67.0035 84.8441 67.225C84.4237 67.4463 83.9335 67.4831 83.373 67.3352L83.6928 66.4808C84.0629 66.573 84.3572 66.5645 84.5754 66.4557C84.7961 66.3499 84.9654 66.1366 85.0859 65.8156C85.2257 65.4426 85.1963 65.1045 84.9983 64.8009C84.8011 64.5005 84.4406 64.2496 83.9153 64.048L83.478 63.8843C82.9445 63.6846 82.5022 63.6273 82.1509 63.7122C81.7987 63.7995 81.5537 64.0273 81.4158 64.3957C81.2898 64.7324 81.2707 65.014 81.3588 65.2401C81.4467 65.4663 81.6586 65.668 81.9942 65.8452L81.6745 66.6995ZM79.2929 69.0249L78.2613 70.7867L76.9846 70.5383L76.5017 71.363L82.0578 72.3051L82.4731 71.5959L78.9309 67.2146L78.4498 68.0362L79.2929 69.0249ZM79.0284 70.938L79.8003 69.6198L81.3011 71.3837L79.0284 70.938ZM76.2901 78.2589L77.3902 77.038L74.0233 74.0041L74.6316 73.3292L77.9984 76.363L79.0889 75.1529L79.6375 75.6473L76.8386 78.7533L76.2901 78.2589ZM72.0173 76.0491L71.3495 76.6705L74.9399 80.5292L75.6077 79.9078L72.0173 76.0491ZM67.7605 82.4753C67.4086 82.0972 67.1649 81.7042 67.0294 81.2964C66.8954 80.8902 66.8788 80.4969 66.9797 80.1164C67.0803 79.7392 67.2888 79.4035 67.605 79.1092C67.9177 78.8182 68.2675 78.6345 68.6546 78.5579C69.0413 78.4848 69.4334 78.5271 69.8307 78.6848C70.2263 78.8442 70.5967 79.1077 70.9421 79.4752L71.1443 79.6926C71.4944 80.0689 71.7372 80.4627 71.8727 80.874C72.0064 81.287 72.0229 81.682 71.9222 82.0592C71.8214 82.4397 71.6138 82.7763 71.2993 83.0689C70.9848 83.3615 70.6359 83.5445 70.2525 83.6178C69.8689 83.6945 69.4786 83.6522 69.0813 83.4911C68.6858 83.3317 68.3121 83.0646 67.9601 82.69L67.7605 82.4753ZM68.6183 82.0528C69.0161 82.4804 69.4024 82.7325 69.777 82.8092C70.1498 82.8875 70.4846 82.7886 70.7815 82.5124C71.0712 82.2428 71.1922 81.9175 71.1444 81.5367C71.0966 81.1594 70.8813 80.7614 70.4985 80.343L70.2913 80.1203C69.8968 79.6963 69.5097 79.4451 69.13 79.3665C68.7486 79.2896 68.4112 79.3875 68.1179 79.6604C67.8211 79.9367 67.6984 80.2618 67.7498 80.6359C67.7995 81.0116 68.0265 81.4168 68.4309 81.8514L68.6183 82.0528ZM61.4588 82.1521L60.602 82.4758L62.4643 87.4062L63.3144 87.0852L61.9879 83.5736L65.5189 86.2528L66.3757 85.9293L64.5133 80.9983L63.6565 81.322L64.9778 84.8198L61.4588 82.1521Z" fill="#090246"/>
</svg>
