<svg width="250" height="133" viewBox="0 0 250 133" fill="none" xmlns="http://www.w3.org/2000/svg">
<path d="M127.098 19.0426C119.105 33.2712 111.777 39.0932 109.113 40.2254L179.502 130.753H188.649C193.431 130.855 198.321 132.655 205.436 131.952C207.243 131.774 208.968 130.453 210.631 130.753C215.303 131.595 218.686 131.184 222.822 129.754C225.289 128.9 228.269 131.727 230.016 130.56C230.945 129.94 231.751 129.273 232.414 128.555C240.088 120.241 236.811 107.771 234.213 102.576C231.348 97.6463 225.22 86.4285 223.621 80.9928C222.022 75.5572 224.687 65.5388 226.219 61.2086C227.658 36.1089 217.759 21.9735 212.63 18.0434C178.857 -12.5322 137.09 1.25678 127.098 19.0426Z" fill="#EAF3FA"/>
<path d="M187.45 59.2102C185.851 58.5707 186.251 53.215 186.651 50.6171L182.317 53.966L182.254 63.4069C185.984 65.5388 193.925 70.0815 195.843 71.2006C198.241 72.5995 201.439 70.4013 201.239 69.8018C201.079 69.3221 196.643 65.7386 194.444 64.0064C196.643 65.3389 201.559 68.0032 203.637 68.0032C206.235 68.0032 211.231 59.8098 210.432 60.6091C209.632 61.4085 202.038 59.8098 202.438 58.211C202.838 56.6123 208.833 58.6107 211.231 57.6115C213.629 56.6123 214.428 52.016 213.03 48.8185C211.91 46.2606 206.834 46.2874 204.436 46.6203C202.171 49.6179 197.402 55.4133 196.443 54.6139C195.484 53.8146 198.441 48.952 200.04 46.6203C198.761 45.9808 191.647 48.6187 188.249 50.0176C188.649 53.3485 189.049 59.8497 187.45 59.2102Z" fill="#C7DCFB"/>
<path d="M60.1519 125.557L76.7386 40.8249L70.7434 128.355C68.6782 128.555 64.1087 128.835 62.3501 128.355C60.5915 127.875 60.1519 126.29 60.1519 125.557Z" fill="#ED7D2B"/>
<path d="M65.9473 123.958L76.7386 41.2246L80.5356 128.355C78.2043 128.688 72.7418 129.154 69.5444 128.355C66.3469 127.556 65.8142 125.091 65.9473 123.958Z" fill="#79ACEB"/>
<path d="M72.1424 123.359L76.7387 41.4244L86.1312 128.355C84.4657 128.422 80.2159 128.475 76.5388 128.155C72.8618 127.835 72.0756 124.825 72.1424 123.359Z" fill="#699EEE"/>
<path d="M79.1366 123.958L76.7385 41.0248C84.8804 69.8857 101.113 127.385 101.317 127.952C101.318 127.953 101.319 127.954 101.319 127.955C101.319 127.956 101.318 127.955 101.317 127.952C101.173 127.821 93.0223 129.227 88.9288 129.954L83.5331 128.155C80.4955 128.315 79.3364 125.424 79.1366 123.958Z" fill="#5388D8"/>
<path d="M84.1327 53.4148L79.5364 56.6123C83.4001 77.2626 91.247 119.522 91.7266 123.359C92.2062 127.196 94.5911 128.289 95.7234 128.355L120.703 131.353C143.019 129.088 187.93 129.794 191.447 128.355C194.964 126.916 195.311 124.158 195.044 122.959L181.855 51.4164L84.1327 53.4148Z" fill="#D7E9FF"/>
<path d="M10.9912 70.4013C-3.39728 91.8241 10.1918 118.363 18.785 128.954C34.3059 128.954 64.7882 128.795 62.55 128.155C60.3117 127.516 60.1519 126.556 60.3517 126.157L75.5396 48.4189C48.9608 32.8315 28.9768 43.6227 10.9912 70.4013Z" fill="#EAF3FA"/>
<path d="M65.9472 98.5787L64.1486 96.1806C65.0755 89.785 39.214 76.4464 29.9759 71.2006C23.2804 67.3989 33.7074 70.9976 28.9768 69.4021C37.4253 71.8985 52.3093 78.0903 57.7538 81.1926C69.3081 87.777 66.3549 91.241 65.9472 91.7842C65.4804 92.4065 66.1111 94.5927 66.5135 95.6922L65.9472 98.5787Z" fill="#82B479"/>
<path d="M61.3509 111.368L63.1495 112.568L62.9496 113.767H62.5499C63.3493 115.565 57.1543 126.556 55.5555 123.159C53.9568 119.762 60.1519 114.366 58.1535 114.566C56.1551 114.766 54.7562 118.163 54.956 119.362C55.1159 120.321 54.3565 121.76 53.9568 122.36C52.0384 125.397 47.4288 124.292 45.3637 123.359C49.5603 119.162 48.5611 117.564 48.3613 117.564C48.1615 117.564 46.1631 118.363 44.3645 121.161C42.5659 123.958 39.7682 121.76 37.5699 119.362C35.8113 117.444 38.8356 113.767 40.5675 112.168C44.3645 112.967 49.5603 113.167 49.5603 112.168C49.5603 111.368 45.1638 110.369 42.9656 109.97C43.3653 108.97 50.5595 104.974 50.7594 105.173C50.9592 105.373 55.7554 110.769 56.9544 109.57C57.9137 108.611 54.0236 106.106 51.9584 104.974C61.3909 100.977 62.1503 107.572 61.3509 111.368Z" fill="#82B479"/>
<path d="M31.1751 127.955C30.5356 127.636 29.3099 127.955 28.777 128.155C31.2417 128.422 36.2111 128.795 36.371 128.155C36.5308 127.516 35.6382 127.489 35.1719 127.556C35.8114 126.277 35.4383 125.691 35.1719 125.557C33.8929 125.397 33.5732 126.956 33.5732 127.755H32.9737C33.3733 123.759 28.5772 117.763 27.7778 119.762C27.1383 121.361 30.7088 125.891 32.574 127.955H31.9745C30.5756 125.357 28.1775 125.357 27.9777 125.957C27.8178 126.436 30.4423 127.489 31.7746 127.955H31.1751Z" fill="#82B479"/>
<path d="M67.7458 49.8177C70.3037 49.8177 72.2753 57.8114 72.9416 61.8082L72.7418 63.207C70.0107 58.7442 65.1878 49.8177 67.7458 49.8177Z" fill="#A8D2A0"/>
<path d="M54.1566 52.4157C58.1534 49.6978 67.8124 60.7426 72.1422 66.6043L71.7425 68.203C54.6362 58.1311 52.8908 53.4816 54.1566 52.4157Z" fill="#A8D2A0"/>
<path d="M63.3493 71.0008C65.2678 71.3205 68.8118 74.1982 70.3437 75.5971L67.3461 90.785L65.9472 91.5843C64.1487 80.1934 20.1839 66.6043 32.1743 71.0008C44.1647 75.3973 67.546 87.3877 64.1487 96.1807C60.7514 104.974 39.3685 102.775 42.566 97.9792C45.7634 93.183 48.9608 93.3829 48.9608 93.183C48.9608 92.9832 60.1519 92.3837 57.9536 90.9848C55.7554 89.5859 53.9568 89.1862 47.9616 91.984C43.1655 94.2222 42.233 94.5156 42.3661 94.3821C35.9712 96.1407 31.5747 88.054 30.1759 83.7906C40.5676 84.5899 42.1663 81.1926 42.1663 80.9928C42.1663 80.793 38.1695 79.1942 32.5739 79.7938C26.9784 80.3933 24.7802 75.1974 26.5787 68.4029C28.0176 62.9672 36.3709 63.0739 40.3677 63.8066C43.2986 68.6695 49.4804 77.9952 50.7594 76.3965C52.0384 74.7978 47.9616 67.8701 45.7634 64.6059C47.3621 63.4868 57.0875 67.4704 61.7506 69.6019C61.5508 74.5979 61.5907 84.3901 63.3493 83.5907C65.1079 82.7914 64.0819 74.8645 63.3493 71.0008Z" fill="#A8D2A0"/>
<path d="M90.8161 65.8789C90.7702 65.6327 90.9588 65.4053 91.209 65.4053H93.5931C93.7854 65.4053 93.9504 65.5424 93.986 65.7314L94.4356 68.1295C94.4816 68.3757 94.2929 68.6027 94.0427 68.6027H91.6587C91.4664 68.6027 91.3013 68.466 91.2658 68.277L90.8161 65.8789Z" fill="#FA9746"/>
<path d="M162.27 25.2376C154.916 32.2719 156.275 38.0273 157.874 40.0256L169.464 44.8217C171.663 46.2206 177.138 48.8185 181.455 48.0192C186.85 47.02 187.85 43.8225 187.65 43.4229C187.45 43.0232 185.651 42.4237 183.453 41.4245C181.695 40.6251 180.323 41.0915 179.856 41.4245C176.326 41.8241 170.384 42.1039 174.86 40.0256C180.456 37.4278 178.857 40.8249 186.651 40.4253C194.444 40.0256 195.843 26.6365 194.644 28.0353C193.445 29.4342 183.853 30.2336 183.653 28.6349C183.453 27.0361 191.447 25.8371 194.245 24.0385C197.042 22.24 196.443 14.4462 192.046 11.4486C188.529 9.05052 183.12 11.5152 180.855 13.0473C179.257 18.1765 175.819 28.0753 174.86 26.6365C173.901 25.1976 175.26 18.1765 176.059 14.8459C174.86 14.8459 162.87 23.0393 163.469 23.6389C164.069 24.2384 167.666 37.8275 165.468 36.6285C163.709 35.6692 162.603 28.6349 162.27 25.2376Z" fill="#E0EBFD"/>
<path d="M76.7387 41.2246L79.5364 56.6123L182.854 56.8121C182.054 52.3493 180.376 43.0631 180.056 41.6243C179.736 40.1854 178.59 39.8259 178.058 39.8259H77.538C76.5788 39.8259 76.6056 40.7586 76.7387 41.2246Z" fill="#FA9746"/>
<path fill-rule="evenodd" clip-rule="evenodd" d="M83.2462 44.4309C83.6847 44.3002 84.1035 44.1043 84.488 43.8473C85.2438 43.3425 85.8329 42.6247 86.1811 41.7846C86.5288 40.9448 86.6199 40.0208 86.4425 39.1291C86.265 38.2374 85.8273 37.4185 85.1847 36.7757C84.5416 36.1329 83.7226 35.6951 82.8313 35.5177C81.9397 35.3404 81.0156 35.4314 80.1755 35.7793C79.3357 36.1272 78.6179 36.7163 78.1127 37.4721C77.6075 38.228 77.3381 39.1167 77.3381 40.0256H78.1375C78.1375 39.2748 78.3601 38.5407 78.7774 37.9163C79.1946 37.2918 79.7878 36.8052 80.4816 36.5178C81.1751 36.2304 81.9389 36.1552 82.6751 36.3017C83.4117 36.4482 84.0883 36.8099 84.6195 37.3409C85.1503 37.8719 85.512 38.5484 85.6583 39.285C85.805 40.0216 85.7298 40.785 85.4424 41.4788C85.1551 42.1727 84.6683 42.7654 84.044 43.1827C83.7906 43.3521 83.5196 43.4892 83.2362 43.5927C83.0755 43.2558 82.7322 43.0232 82.3341 43.0232C81.7822 43.0232 81.3349 43.4708 81.3349 44.0224C81.3349 44.5743 81.7822 45.0216 82.3341 45.0216C82.7406 45.0216 83.0903 44.779 83.2462 44.4309Z" fill="#79ACEB"/>
<path fill-rule="evenodd" clip-rule="evenodd" d="M99.2334 44.4308C99.6718 44.3001 100.091 44.1043 100.475 43.8473C101.231 43.3425 101.82 42.6247 102.168 41.7846C102.516 40.9448 102.607 40.0208 102.43 39.129C102.252 38.2374 101.815 37.4184 101.172 36.7756C100.529 36.1328 99.7098 35.6951 98.8185 35.5177C97.9268 35.3404 97.0024 35.4314 96.1626 35.7793C95.3229 36.1272 94.6051 36.7163 94.0999 37.4722C93.5947 38.228 93.3253 39.1166 93.3253 40.0256H94.1247C94.1247 39.2748 94.3473 38.5407 94.7646 37.9162C95.1818 37.2918 95.775 36.8052 96.4688 36.5178C97.1623 36.2304 97.926 36.1552 98.6622 36.3017C99.3989 36.4482 100.076 36.8099 100.607 37.3409C101.137 37.8719 101.499 38.5484 101.645 39.285C101.792 40.0216 101.717 40.785 101.43 41.4788C101.142 42.1726 100.655 42.7658 100.031 43.1826C99.7778 43.3521 99.5068 43.4892 99.2234 43.5927C99.0627 43.2558 98.7194 43.0232 98.3213 43.0232C97.7694 43.0232 97.3221 43.4708 97.3221 44.0224C97.3221 44.5743 97.7694 45.0216 98.3213 45.0216C98.7278 45.0216 99.0775 44.779 99.2334 44.4308Z" fill="#79ACEB"/>
<path fill-rule="evenodd" clip-rule="evenodd" d="M115.221 44.4308C115.659 44.3001 116.078 44.1043 116.463 43.8473C117.218 43.3425 117.807 42.6247 118.156 41.7846C118.503 40.9448 118.594 40.0208 118.417 39.129C118.239 38.2374 117.802 37.4184 117.159 36.7756C116.516 36.1328 115.697 35.6951 114.806 35.5177C113.914 35.3404 112.99 35.4314 112.15 35.7793C111.31 36.1272 110.592 36.7163 110.087 37.4722C109.582 38.228 109.313 39.1166 109.313 40.0256H110.112C110.112 39.2748 110.335 38.5407 110.752 37.9162C111.169 37.2918 111.762 36.8052 112.456 36.5178C113.15 36.2304 113.913 36.1552 114.65 36.3017C115.386 36.4482 116.063 36.8099 116.594 37.3409C117.125 37.8719 117.486 38.5485 117.633 39.285C117.779 40.0216 117.704 40.785 117.417 41.4788C117.13 42.1726 116.643 42.7658 116.018 43.1826C115.765 43.3521 115.494 43.4892 115.211 43.5927C115.05 43.2558 114.707 43.0232 114.309 43.0232C113.757 43.0232 113.309 43.4708 113.309 44.0224C113.309 44.5743 113.757 45.0216 114.309 45.0216C114.715 45.0216 115.065 44.779 115.221 44.4308Z" fill="#79ACEB"/>
<path fill-rule="evenodd" clip-rule="evenodd" d="M131.208 44.4308C131.646 44.3001 132.065 44.1043 132.45 43.8473C133.205 43.3425 133.794 42.6247 134.143 41.7846C134.49 40.9448 134.581 40.0208 134.404 39.129C134.227 38.2374 133.789 37.4184 133.146 36.7756C132.503 36.1328 131.684 35.6951 130.793 35.5177C129.901 35.3404 128.977 35.4314 128.137 35.7793C127.297 36.1272 126.579 36.7163 126.074 37.4722C125.569 38.228 125.3 39.1167 125.3 40.0256H126.099C126.099 39.2748 126.322 38.5407 126.739 37.9162C127.156 37.2919 127.749 36.8052 128.443 36.5178C129.137 36.2304 129.9 36.1552 130.637 36.3017C131.373 36.4482 132.05 36.8099 132.581 37.3409C133.112 37.8719 133.474 38.5485 133.62 39.285C133.767 40.0216 133.691 40.785 133.404 41.4788C133.117 42.1726 132.63 42.7658 132.006 43.1826C131.752 43.3521 131.481 43.4892 131.198 43.5927C131.037 43.2558 130.694 43.0232 130.296 43.0232C129.744 43.0232 129.296 43.4708 129.296 44.0224C129.296 44.5743 129.744 45.0216 130.296 45.0216C130.702 45.0216 131.052 44.779 131.208 44.4308Z" fill="#79ACEB"/>
<path fill-rule="evenodd" clip-rule="evenodd" d="M147.195 44.4308C147.633 44.3001 148.052 44.1043 148.437 43.8473C149.193 43.3425 149.782 42.6247 150.13 41.7846C150.478 40.9448 150.569 40.0208 150.391 39.129C150.214 38.2374 149.776 37.4184 149.133 36.7756C148.49 36.1328 147.671 35.6951 146.78 35.5177C145.888 35.3404 144.964 35.4314 144.124 35.7793C143.284 36.1272 142.567 36.7163 142.061 37.4722C141.556 38.228 141.287 39.1167 141.287 40.0256H142.086C142.086 39.2748 142.309 38.5407 142.726 37.9162C143.143 37.2919 143.737 36.8052 144.43 36.5178C145.124 36.2304 145.888 36.1552 146.624 36.3017C147.36 36.4483 148.037 36.8099 148.568 37.3409C149.099 37.8719 149.461 38.5485 149.607 39.285C149.754 40.0216 149.679 40.785 149.391 41.4788C149.104 42.1726 148.617 42.7658 147.993 43.1826C147.739 43.3521 147.468 43.4892 147.185 43.5927C147.024 43.2558 146.681 43.0232 146.283 43.0232C145.731 43.0232 145.284 43.4708 145.284 44.0224C145.284 44.5743 145.731 45.0216 146.283 45.0216C146.689 45.0216 147.039 44.779 147.195 44.4308Z" fill="#79ACEB"/>
<path fill-rule="evenodd" clip-rule="evenodd" d="M163.182 44.4309C163.621 44.3002 164.04 44.1043 164.424 43.8473C165.18 43.3425 165.769 42.6247 166.117 41.7846C166.465 40.9448 166.556 40.0208 166.378 39.1291C166.201 38.2375 165.763 37.4185 165.121 36.7757C164.478 36.1329 163.659 35.6951 162.767 35.5177C161.876 35.3404 160.951 35.4315 160.111 35.7793C159.272 36.1272 158.554 36.7163 158.049 37.4722C157.544 38.2281 157.274 39.1167 157.274 40.0256H158.074C158.074 39.2748 158.296 38.5407 158.713 37.9163C159.131 37.2919 159.724 36.8052 160.418 36.5178C161.111 36.2305 161.875 36.1553 162.611 36.3018C163.348 36.4483 164.024 36.8099 164.556 37.3409C165.086 37.8719 165.448 38.5485 165.594 39.285C165.741 40.0216 165.666 40.785 165.378 41.4788C165.091 42.1727 164.604 42.7658 163.98 43.1827C163.727 43.3521 163.456 43.4892 163.172 43.5927C163.012 43.2558 162.668 43.0232 162.27 43.0232C161.718 43.0232 161.271 43.4708 161.271 44.0224C161.271 44.5743 161.718 45.0216 162.27 45.0216C162.677 45.0216 163.026 44.779 163.182 44.4309Z" fill="#79ACEB"/>
<path fill-rule="evenodd" clip-rule="evenodd" d="M179.17 44.4308C179.608 44.3001 180.027 44.1043 180.411 43.8473C181.167 43.3425 181.756 42.6247 182.104 41.7846C182.452 40.9448 182.543 40.0208 182.366 39.1291C182.188 38.2375 181.751 37.4185 181.108 36.7757C180.465 36.1329 179.646 35.6951 178.755 35.5178C177.863 35.3404 176.939 35.4314 176.099 35.7793C175.259 36.1272 174.541 36.7163 174.036 37.4722C173.531 38.228 173.261 39.1167 173.261 40.0256H174.061C174.061 39.2748 174.283 38.5407 174.701 37.9163C175.118 37.2919 175.711 36.8052 176.405 36.5178C177.098 36.2304 177.862 36.1553 178.598 36.3017C179.335 36.4483 180.012 36.8099 180.543 37.3409C181.074 37.8719 181.435 38.5485 181.582 39.285C181.728 40.0216 181.653 40.785 181.366 41.4788C181.078 42.1727 180.592 42.7658 179.967 43.1826C179.714 43.3521 179.443 43.4892 179.16 43.5927C178.999 43.2558 178.656 43.0236 178.257 43.0236C177.706 43.0236 177.258 43.4708 177.258 44.0228C177.258 44.5743 177.706 45.022 178.257 45.022C178.664 45.022 179.014 44.779 179.17 44.4308Z" fill="#79ACEB"/>
<path d="M94.9241 52.6155H90.5276C90.0862 52.6155 89.7283 52.9734 89.7283 53.4149C89.7283 53.8563 90.0862 54.2142 90.5276 54.2142H94.9241C95.3656 54.2142 95.7235 53.8563 95.7235 53.4149C95.7235 52.9734 95.3656 52.6155 94.9241 52.6155Z" fill="white"/>
<path d="M107.714 52.6155H103.317C102.876 52.6155 102.518 52.9734 102.518 53.4149C102.518 53.8563 102.876 54.2142 103.317 54.2142H107.714C108.155 54.2142 108.513 53.8563 108.513 53.4149C108.513 52.9734 108.155 52.6155 107.714 52.6155Z" fill="white"/>
<path d="M120.903 52.6155H116.507C116.065 52.6155 115.707 52.9734 115.707 53.4149C115.707 53.8563 116.065 54.2142 116.507 54.2142H120.903C121.345 54.2142 121.703 53.8563 121.703 53.4149C121.703 52.9734 121.345 52.6155 120.903 52.6155Z" fill="white"/>
<path d="M134.093 52.6155H129.696C129.255 52.6155 128.897 52.9734 128.897 53.4149C128.897 53.8563 129.255 54.2142 129.696 54.2142H134.093C134.534 54.2142 134.892 53.8563 134.892 53.4149C134.892 52.9734 134.534 52.6155 134.093 52.6155Z" fill="white"/>
<path d="M146.883 52.6155H142.486C142.045 52.6155 141.687 52.9734 141.687 53.4149C141.687 53.8563 142.045 54.2142 142.486 54.2142H146.883C147.324 54.2142 147.682 53.8563 147.682 53.4149C147.682 52.9734 147.324 52.6155 146.883 52.6155Z" fill="white"/>
<path d="M160.072 52.6155H155.675C155.234 52.6155 154.876 52.9734 154.876 53.4149C154.876 53.8563 155.234 54.2142 155.675 54.2142H160.072C160.513 54.2142 160.871 53.8563 160.871 53.4149C160.871 52.9734 160.513 52.6155 160.072 52.6155Z" fill="white"/>
<path d="M173.261 52.6155H168.865C168.423 52.6155 168.065 52.9734 168.065 53.4149C168.065 53.8563 168.423 54.2142 168.865 54.2142H173.261C173.703 54.2142 174.061 53.8563 174.061 53.4149C174.061 52.9734 173.703 52.6155 173.261 52.6155Z" fill="white"/>
<path d="M92.3113 77.948C92.2154 77.4548 92.5935 76.996 93.0959 76.996H98.8433C99.2338 76.996 99.5675 77.2786 99.6319 77.6643L100.564 83.2598C100.645 83.747 100.27 84.1902 99.7758 84.1902H94.1842C93.8013 84.1902 93.4724 83.9193 93.3993 83.5436L92.3113 77.948Z" fill="#AECDFB"/>
<path d="M105.501 77.948C105.405 77.4548 105.783 76.996 106.285 76.996H112.033C112.423 76.996 112.757 77.2786 112.821 77.6643L113.754 83.2598C113.835 83.747 113.459 84.1902 112.965 84.1902H107.374C106.991 84.1902 106.662 83.9193 106.589 83.5436L105.501 77.948Z" fill="#AECDFB"/>
<path d="M118.69 77.948C118.594 77.4548 118.973 76.996 119.475 76.996H125.222C125.613 76.996 125.947 77.2786 126.011 77.6643L126.943 83.2598C127.024 83.747 126.649 84.1902 126.155 84.1902H120.563C120.18 84.1902 119.851 83.9193 119.778 83.5436L118.69 77.948Z" fill="#AECDFB"/>
<path d="M131.88 77.948C131.784 77.4548 132.162 76.996 132.664 76.996H138.412C138.802 76.996 139.136 77.2786 139.2 77.6643L140.133 83.2598C140.214 83.747 139.838 84.1902 139.344 84.1902H133.753C133.37 84.1902 133.041 83.9193 132.968 83.5436L131.88 77.948Z" fill="#AECDFB"/>
<path d="M129.881 66.757C129.785 66.2638 130.163 65.8049 130.666 65.8049H136.413C136.804 65.8049 137.137 66.0875 137.202 66.4732L138.134 72.0687C138.215 72.5559 137.84 72.9992 137.346 72.9992H131.754C131.371 72.9992 131.042 72.7282 130.969 72.3525L129.881 66.757Z" fill="#AECDFB"/>
<path d="M145.069 77.948C144.973 77.4548 145.351 76.996 145.854 76.996H151.601C151.992 76.996 152.325 77.2786 152.39 77.6643L153.322 83.2598C153.403 83.747 153.028 84.1902 152.534 84.1902H146.942C146.559 84.1902 146.23 83.9193 146.157 83.5436L145.069 77.948Z" fill="#AECDFB"/>
<path d="M143.071 66.757C142.975 66.2638 143.353 65.8049 143.855 65.8049H149.603C149.993 65.8049 150.327 66.0875 150.391 66.4732L151.324 72.0687C151.405 72.5559 151.029 72.9992 150.535 72.9992H144.944C144.561 72.9992 144.232 72.7282 144.159 72.3525L143.071 66.757Z" fill="#AECDFB"/>
<path d="M158.259 77.948C158.163 77.4548 158.541 76.996 159.043 76.996H164.791C165.181 76.996 165.515 77.2786 165.579 77.6643L166.512 83.2598C166.593 83.747 166.217 84.1902 165.723 84.1902H160.131C159.749 84.1902 159.42 83.9193 159.347 83.5436L158.259 77.948Z" fill="#79ACEB"/>
<path d="M155.876 66.3677C155.772 65.8713 156.151 65.4053 156.658 65.4053H162.916C163.303 65.4053 163.635 65.6831 163.703 66.0643L164.701 71.6599C164.788 72.1499 164.411 72.5995 163.914 72.5995H157.822C157.443 72.5995 157.117 72.3337 157.04 71.9632L155.876 66.3677Z" fill="#79ACEB"/>
<path d="M171.448 77.948C171.352 77.4548 171.73 76.996 172.233 76.996H177.98C178.371 76.996 178.704 77.2786 178.769 77.6643L179.701 83.2598C179.782 83.747 179.406 84.1902 178.912 84.1902H173.321C172.938 84.1902 172.609 83.9193 172.536 83.5436L171.448 77.948Z" fill="#79ACEB"/>
<path d="M169.45 66.757C169.354 66.2638 169.732 65.8049 170.234 65.8049H175.982C176.372 65.8049 176.706 66.0875 176.77 66.4732L177.703 72.0687C177.784 72.5559 177.408 72.9992 176.914 72.9992H171.323C170.94 72.9992 170.611 72.7282 170.538 72.3525L169.45 66.757Z" fill="#79ACEB"/>
<path d="M94.7095 89.9384C94.6136 89.4452 94.9917 88.9864 95.4941 88.9864H101.241C101.632 88.9864 101.966 89.269 102.03 89.6547L102.963 95.2502C103.044 95.7374 102.668 96.1806 102.174 96.1806H96.5824C96.1995 96.1806 95.8706 95.9097 95.7975 95.534L94.7095 89.9384Z" fill="#AECDFB"/>
<path d="M97.1075 101.929C97.0115 101.436 97.3896 100.977 97.892 100.977H103.639C104.03 100.977 104.364 101.259 104.428 101.645L105.36 107.241C105.442 107.728 105.066 108.171 104.572 108.171H98.9804C98.5975 108.171 98.2685 107.9 98.1954 107.524L97.1075 101.929Z" fill="#AECDFB"/>
<path d="M99.5057 113.919C99.4097 113.426 99.7878 112.967 100.29 112.967H106.038C106.428 112.967 106.762 113.25 106.826 113.636L107.759 119.231C107.84 119.718 107.464 120.161 106.97 120.161H101.379C100.996 120.161 100.667 119.891 100.594 119.515L99.5057 113.919Z" fill="#AECDFB"/>
<path d="M107.899 89.9384C107.803 89.4452 108.181 88.9864 108.683 88.9864H114.431C114.821 88.9864 115.155 89.269 115.219 89.6547L116.152 95.2502C116.233 95.7374 115.857 96.1806 115.363 96.1806H109.772C109.389 96.1806 109.06 95.9097 108.987 95.534L107.899 89.9384Z" fill="#AECDFB"/>
<path d="M110.297 101.929C110.201 101.436 110.579 100.977 111.081 100.977H116.829C117.219 100.977 117.553 101.259 117.617 101.645L118.55 107.241C118.631 107.728 118.255 108.171 117.761 108.171H112.17C111.787 108.171 111.458 107.9 111.385 107.524L110.297 101.929Z" fill="#FA9746"/>
<path d="M112.695 113.919C112.599 113.426 112.977 112.967 113.48 112.967H119.227C119.617 112.967 119.951 113.25 120.016 113.636L120.948 119.231C121.029 119.718 120.653 120.161 120.159 120.161H114.568C114.185 120.161 113.856 119.891 113.783 119.515L112.695 113.919Z" fill="#AECDFB"/>
<path d="M121.088 89.9384C120.993 89.4452 121.371 88.9864 121.873 88.9864H127.62C128.011 88.9864 128.345 89.269 128.409 89.6547L129.341 95.2502C129.423 95.7374 129.047 96.1806 128.553 96.1806H122.961C122.578 96.1806 122.249 95.9097 122.176 95.534L121.088 89.9384Z" fill="#AECDFB"/>
<path d="M123.487 101.929C123.391 101.436 123.769 100.977 124.271 100.977H130.018C130.409 100.977 130.743 101.259 130.807 101.645L131.739 107.241C131.821 107.728 131.445 108.171 130.951 108.171H125.359C124.976 108.171 124.648 107.9 124.574 107.524L123.487 101.929Z" fill="#AECDFB"/>
<path d="M125.885 113.919C125.789 113.426 126.167 112.967 126.669 112.967H132.417C132.807 112.967 133.141 113.25 133.205 113.636L134.138 119.231C134.219 119.718 133.843 120.161 133.349 120.161H127.757C127.375 120.161 127.046 119.891 126.972 119.515L125.885 113.919Z" fill="#AECDFB"/>
<path d="M134.278 89.9384C134.182 89.4452 134.56 88.9864 135.062 88.9864H140.81C141.2 88.9864 141.534 89.269 141.598 89.6547L142.531 95.2502C142.612 95.7374 142.236 96.1806 141.742 96.1806H136.151C135.768 96.1806 135.439 95.9097 135.366 95.534L134.278 89.9384Z" fill="#AECDFB"/>
<path d="M136.676 101.929C136.58 101.436 136.958 100.977 137.46 100.977H143.208C143.598 100.977 143.932 101.259 143.996 101.645L144.929 107.241C145.01 107.728 144.634 108.171 144.14 108.171H138.549C138.166 108.171 137.837 107.9 137.764 107.524L136.676 101.929Z" fill="#AECDFB"/>
<path d="M139.074 113.919C138.978 113.426 139.356 112.967 139.858 112.967H145.606C145.996 112.967 146.33 113.25 146.394 113.636L147.327 119.231C147.408 119.718 147.032 120.161 146.538 120.161H140.947C140.564 120.161 140.235 119.891 140.162 119.515L139.074 113.919Z" fill="#AECDFB"/>
<path d="M147.467 89.9384C147.371 89.4452 147.749 88.9864 148.252 88.9864H153.999C154.39 88.9864 154.723 89.269 154.788 89.6547L155.72 95.2502C155.801 95.7374 155.426 96.1806 154.932 96.1806H149.34C148.957 96.1806 148.628 95.9097 148.555 95.534L147.467 89.9384Z" fill="#AECDFB"/>
<path d="M149.865 101.929C149.769 101.436 150.148 100.977 150.65 100.977H156.397C156.788 100.977 157.122 101.259 157.186 101.645L158.118 107.241C158.2 107.728 157.824 108.171 157.33 108.171H151.738C151.355 108.171 151.026 107.9 150.953 107.524L149.865 101.929Z" fill="#AECDFB"/>
<path d="M152.263 113.919C152.168 113.426 152.546 112.967 153.048 112.967H158.795C159.186 112.967 159.52 113.25 159.584 113.636L160.516 119.231C160.598 119.718 160.222 120.161 159.728 120.161H154.136C153.753 120.161 153.425 119.891 153.351 119.515L152.263 113.919Z" fill="#AECDFB"/>
<path d="M160.657 89.9384C160.561 89.4452 160.939 88.9864 161.441 88.9864H167.189C167.579 88.9864 167.913 89.269 167.977 89.6547L168.91 95.2502C168.991 95.7374 168.615 96.1806 168.121 96.1806H162.53C162.147 96.1806 161.818 95.9097 161.745 95.534L160.657 89.9384Z" fill="#79ACEB"/>
<path d="M163.055 101.929C162.959 101.436 163.337 100.977 163.839 100.977H169.587C169.977 100.977 170.311 101.259 170.375 101.645L171.308 107.241C171.389 107.728 171.013 108.171 170.519 108.171H164.928C164.545 108.171 164.216 107.9 164.143 107.524L163.055 101.929Z" fill="#79ACEB"/>
<path d="M165.053 113.52C164.957 113.026 165.335 112.568 165.838 112.568H171.585C171.976 112.568 172.309 112.85 172.374 113.236L173.306 118.831C173.387 119.319 173.012 119.762 172.518 119.762H166.926C166.543 119.762 166.214 119.491 166.141 119.115L165.053 113.52Z" fill="#79ACEB"/>
<path d="M173.846 89.9384C173.75 89.4452 174.128 88.9864 174.631 88.9864H180.378C180.769 88.9864 181.102 89.269 181.167 89.6547L182.099 95.2502C182.18 95.7374 181.805 96.1806 181.311 96.1806H175.719C175.336 96.1806 175.007 95.9097 174.934 95.534L173.846 89.9384Z" fill="#79ACEB"/>
<path d="M176.244 101.929C176.148 101.436 176.526 100.977 177.029 100.977H182.776C183.167 100.977 183.5 101.259 183.565 101.645L184.497 107.241C184.578 107.728 184.203 108.171 183.709 108.171H178.117C177.734 108.171 177.405 107.9 177.332 107.524L176.244 101.929Z" fill="#79ACEB"/>
<path d="M110.112 66.6043H96.1231C95.9023 66.6043 95.7234 66.4254 95.7234 66.2046C95.7234 65.9839 95.9023 65.8049 96.1231 65.8049H110.112C110.333 65.8049 110.512 65.9839 110.512 66.2046C110.512 66.4254 110.333 66.6043 110.112 66.6043Z" fill="#AECCFB"/>
<path d="M110.512 68.203H96.5227C96.302 68.203 96.123 68.0241 96.123 67.8034C96.123 67.5826 96.302 67.4037 96.5227 67.4037H110.512C110.732 67.4037 110.911 67.5826 110.911 67.8034C110.911 68.0241 110.732 68.203 110.512 68.203Z" fill="#AECCFB"/>
<path d="M216.427 127.156C214.508 126.676 214.029 127.755 214.029 128.355L222.222 128.755C222.289 128.622 222.382 128.315 222.222 128.155C222.022 127.955 221.623 127.755 220.624 127.755C219.824 127.755 218.958 127.622 218.625 127.556C220.624 125.557 224.42 124.358 222.222 122.959C220.464 121.84 218.825 125.557 218.225 127.556L217.626 127.356C217.466 126.876 218.492 124.625 219.025 123.559C221.743 120.521 220.956 119.362 220.224 119.162C217.826 118.203 216.693 124.092 216.427 127.156Z" fill="#82B479"/>
<path d="M185.251 124.742L182.059 86.4456C182.057 86.4181 182.083 86.3965 182.11 86.4041C187.812 87.9652 193.385 86.0084 195.408 84.8113C195.428 84.7994 195.452 84.8061 195.461 84.8273C195.771 85.5595 195.978 89.0807 196.043 90.5851C195.724 94.0999 198.171 98.9712 199.438 100.972C199.44 100.976 199.442 100.978 199.445 100.98C202.797 104.022 204.435 115.821 204.835 121.352C204.836 121.358 204.835 121.363 204.833 121.369C204.507 122.159 202.86 122.883 202.056 123.153C202.045 123.157 202.034 123.157 202.024 123.149C200.578 122.138 195.017 111.112 192.328 105.544C192.309 105.504 192.251 105.518 192.252 105.561C192.335 109.7 190.034 120.418 188.852 125.344C188.85 125.353 188.845 125.36 188.837 125.366C187.567 126.305 185.935 125.367 185.263 124.768C185.256 124.761 185.251 124.752 185.251 124.742Z" fill="#FA9746"/>
<path d="M146.283 64.2063C143.685 66.0048 139.049 70.1615 141.287 72.3997C144.085 75.1975 151.079 69.2023 151.279 69.2023C151.45 69.2023 155.261 65.4161 153.016 64.3078C151.958 63.7858 150.689 64.0963 149.558 64.4317C148.126 64.8565 146.448 65.5312 145.683 66.4045" stroke="#C76259"/>
<path d="M0 128.755H249.8" stroke="black" stroke-width="2"/>
<path d="M160.671 61.8082L158.273 63.6067L161.071 64.2062L172.862 62.008L173.461 60.4093L172.262 59.8098L160.671 61.8082Z" fill="#C65547"/>
<path d="M183.054 96.98L182.254 86.7882L183.054 85.789L184.053 86.988L192.046 105.373L191.647 110.369L183.054 96.98Z" fill="#ED7D2B"/>
<path d="M178.857 69.2838C179.337 69.4436 181.921 67.0855 183.054 65.8865C182.734 66.2062 182.787 71.1343 182.654 73.5987C181.695 74.0783 179.523 74.5464 178.857 74.6795C176.139 74.8393 170.797 67.9516 168.465 64.4876C168.785 63.6882 169.931 63.755 170.464 63.8881C173.062 65.6199 178.377 69.1239 178.857 69.2838Z" fill="#233863"/>
<path d="M161.071 64.2062L160.671 61.8081L159.672 62.6075L159.872 64.0064L161.071 64.2062Z" fill="#FFB27E"/>
<path d="M172.862 62.008L172.462 59.8098C173.861 59.0104 174.261 60.809 174.061 61.4085C173.901 61.8881 173.195 62.008 172.862 62.008Z" fill="#FFB27E"/>
<path d="M168.665 61.6083C168.505 61.7682 168.732 62.4744 168.865 62.8073L167.466 63.0072C167.626 63.9664 168.332 64.3397 168.665 64.4061C169.265 64.273 170.424 63.9664 170.264 63.8065C170.104 63.6467 170.064 63.4736 170.064 63.4069C170.224 62.9273 170.131 62.6743 170.064 62.6075H169.864C169.664 62.4077 168.865 61.4085 168.665 61.6083Z" fill="#FFB27E"/>
<path d="M166.866 60.809C167 60.6091 167.426 60.2894 168.065 60.6091L166.866 60.809Z" fill="#FFB27E"/>
<path d="M196.443 87.9872L197.442 86.7881C197.922 87.2678 198.841 87.3877 199.241 87.3877C199.241 89.3061 197.642 90.7186 196.843 91.1846L197.242 88.5867C196.603 89.5459 196.443 89.6527 196.443 89.5859V87.9872Z" fill="#FFB27E"/>
<path d="M186.651 56.8122C185.372 56.6523 185.452 53.1487 185.651 51.4165L185.851 50.6171L187.85 50.4173L191.447 51.8161V54.8137C191.447 55.2934 191.18 55.5468 191.047 55.6131C191.047 56.7322 191.98 58.211 192.446 58.8106L189.448 60.4093L187.05 60.2094L187.65 59.8098L187.45 56.8122H186.651Z" fill="#FFB27E"/>
<path d="M182.854 66.002C182.857 64.2554 185.483 61.3153 186.823 60.036C186.839 60.0208 186.863 60.022 186.879 60.036C187.516 60.5851 189.654 59.8069 190.048 59.6099C190.366 59.4512 191.632 59.0156 192.235 58.8141C192.243 58.8117 192.25 58.8117 192.257 58.8133C193.329 59.0855 195.808 60.3393 197.242 63.207C198.68 66.0827 200.637 74.6527 201.437 78.5867C201.439 78.5923 201.438 78.5979 201.437 78.6031L199.447 87.3605C199.443 87.3769 199.429 87.3893 199.413 87.3913C198.16 87.5352 197.322 86.7985 197.05 86.3993C197.045 86.3921 197.043 86.3841 197.043 86.3757L197.441 77.8109C197.442 77.8009 197.439 77.7914 197.432 77.7838L195.519 75.4884C195.495 75.4588 195.447 75.4772 195.449 75.5156L195.842 84.7642C195.843 84.7798 195.834 84.7949 195.819 84.8017C190.246 87.5859 189.648 86.9884 189.049 87.1878C188.449 87.3877 182.254 87.1878 181.855 86.7882C181.535 86.4684 182.254 73.7322 182.654 67.4037L182.853 66.0076C182.854 66.006 182.854 66.004 182.854 66.002Z" fill="#2B468B"/>
<path d="M192.846 71.2006L195.643 75.3973L195.564 78.195C193.006 76.7562 192.713 72.9328 192.846 71.2006Z" fill="#233863"/>
<path d="M181.855 127.356C184.572 127.036 185.385 125.624 185.452 124.958C186.251 125.597 187.783 125.624 188.449 125.557C188.769 126.357 188.449 127.755 188.249 128.355H180.656C180.815 127.556 181.522 127.356 181.855 127.356Z" fill="#233863"/>
<path d="M202.038 124.358L202.238 122.959L204.636 121.76L206.035 123.759C206.195 124.558 205.569 125.157 205.236 125.357C204.836 125.557 204.237 126.556 204.237 127.156C204.237 127.635 203.704 128.155 203.437 128.355L200.04 128.155C199.88 127.835 200.24 127.622 200.44 127.556C202.038 127.236 202.171 125.291 202.038 124.358Z" fill="#233863"/>
<path d="M188.049 47.6195C191.247 47.4597 192.446 48.086 192.646 48.4189C192.646 48.2858 192.566 47.9792 192.246 47.8194C191.846 47.6195 193.645 48.4189 193.245 49.0184L193.645 49.2182H193.245C193.565 52.7354 192.179 54.4141 191.447 54.8138C190.448 54.0144 191.247 52.8154 190.847 52.4157C190.527 52.0959 190.181 52.5492 190.048 52.8154C189.915 52.8821 189.568 52.7754 189.249 51.8162C188.929 50.8569 188.049 50.7506 187.65 50.817C184.253 52.016 184.652 51.0168 184.253 50.2175C183.853 49.4181 184.053 47.8194 188.049 47.6195Z" fill="#2D3A64"/>
<path d="M250 128.954H0.199829V132.152H250V128.954Z" fill="white"/>
</svg>
